<svg xmlns="http://www.w3.org/2000/svg" viewBox="0 0 512 512" width="512" height="512">
  <defs>
    <linearGradient id="bg" x1="0" y1="0" x2="1" y2="1">
      <stop offset="0" stop-color="#5c7cfa"/>
      <stop offset="1" stop-color="#8b5cf6"/>
    </linearGradient>
  </defs>
  <rect width="512" height="512" rx="112" fill="url(#bg)"/>
  <!-- back card -->
  <rect x="150" y="150" width="212" height="284" rx="28" fill="#ffffff" opacity="0.28" transform="rotate(-12 256 292)"/>
  <!-- front card -->
  <g transform="rotate(8 256 256)">
    <rect x="138" y="138" width="236" height="236" rx="30" fill="#ffffff"/>
    <rect x="170" y="178" width="172" height="20" rx="10" fill="#5c7cfa"/>
    <rect x="170" y="214" width="138" height="14" rx="7" fill="#adb5bd"/>
    <rect x="170" y="242" width="156" height="14" rx="7" fill="#adb5bd"/>
    <rect x="170" y="270" width="104" height="14" rx="7" fill="#adb5bd"/>
  </g>
  <!-- spark -->
  <path d="M356 300l34 20-18 36 34 22-44 4 8 40-30-28-30 28 8-40-44-4 34-22-18-36 34-20-16 38z" fill="#ffd43b"/>
</svg>
